<svg width="16" height="16" viewBox="0 0 16 16" fill="none" xmlns="http://www.w3.org/2000/svg">
<path d="M10.6055 9.49421C13.2942 9.49421 15.5146 11.4855 15.9735 14.0953C15.9871 14.1722 15.9958 14.3016 15.9997 14.4838C16.0174 15.3034 15.3631 15.9821 14.5382 15.9997C14.5277 15.9999 14.517 16 14.5063 16H1.49377C0.668785 16 0 15.3354 0 14.5156L0.000390732 14.4819C0.00432247 14.3098 0.0126196 14.1871 0.0252673 14.1138C0.464545 11.5666 2.58107 9.60417 5.17632 9.49868L5.39646 9.49421C6.26365 9.98107 7.13149 10.2245 8 10.2245C8.86851 10.2245 9.73702 9.98107 10.6055 9.49421ZM11.0018 1.24219C12.6685 2.89846 12.6685 5.58379 11.0018 7.24007C9.33508 8.89633 6.63286 8.89633 4.96617 7.24007C3.29947 5.5838 3.29947 2.89847 4.96617 1.24219C6.63285 -0.414065 9.33507 -0.414065 11.0018 1.24219Z" fill="#4C5254"/>
</svg>
