<svg width="16" height="14" viewBox="0 0 16 14" fill="none" xmlns="http://www.w3.org/2000/svg">
<path fill-rule="evenodd" clip-rule="evenodd" d="M0 3.5V10.5C0 12.433 1.59188 14 3.55556 14H12.4444C14.4081 14 16 12.433 16 10.5V3.5C16 1.567 14.4081 0 12.4444 0H3.55556C1.59188 0 0 1.567 0 3.5ZM3.3009 2.82049C2.93328 2.57031 2.43658 2.67171 2.1915 3.04699C1.94642 3.42228 2.04576 3.92932 2.41338 4.17951L6.9223 7.24808C7.5749 7.69221 8.4251 7.69221 9.0777 7.24808L13.5866 4.17951C13.9543 3.92932 14.0536 3.42228 13.8085 3.04699C13.5634 2.67171 13.0667 2.57031 12.6991 2.82049L8.19018 5.88905C8.07502 5.96743 7.92498 5.96743 7.80982 5.88905L3.3009 2.82049Z" fill="#4C5254"/>
</svg>
