<svg width="16" height="15" viewBox="0 0 16 15" fill="none" xmlns="http://www.w3.org/2000/svg">
<path fill-rule="evenodd" clip-rule="evenodd" d="M0.940201 14.3325C1.08202 14.4744 1.2682 14.5456 1.45438 14.5456C1.64056 14.5456 1.82675 14.4744 1.96856 14.3325L15.0595 1.24164C15.3438 0.957273 15.3438 0.497636 15.0595 0.213273C14.7751 -0.0710909 14.3155 -0.0710909 14.0311 0.213273L11.6943 2.55006C10.6283 1.90708 9.3876 1.45453 7.99991 1.45453C3.24427 1.45453 0.221002 6.69089 0.0944563 6.91416C-0.0320891 7.13744 -0.0313619 7.41089 0.0959108 7.63344C0.170774 7.76445 1.25781 9.6291 3.10198 11.1424L0.940201 13.3042C0.655838 13.5885 0.655838 14.0482 0.940201 14.3325ZM5.50097 8.74341L9.47061 4.77377C9.03916 4.51585 8.53881 4.36362 7.99991 4.36362C6.39555 4.36362 5.09082 5.66835 5.09082 7.27271C5.09082 7.81161 5.24305 8.31196 5.50097 8.74341ZM13.9644 4.3949L10.8895 7.46981C10.7913 8.9149 9.64149 10.0647 8.1964 10.1629L5.69531 12.664C6.40949 12.9273 7.17749 13.0924 8.00004 13.0924C12.7077 13.0924 15.7746 7.85962 15.9026 7.63708C16.032 7.41308 16.0328 7.13744 15.904 6.91344C15.8451 6.81017 15.1535 5.63053 13.9644 4.3949Z" fill="#4C5254"/>
</svg>

