<svg width="16" height="15" viewBox="0 0 16 11" fill="none" xmlns="http://www.w3.org/2000/svg">
<path d="M10 5.25C10 6.35457 9.10457 7.25 8 7.25C6.89543 7.25 6 6.35457 6 5.25C6 4.14543 6.89543 3.25 8 3.25C9.10457 3.25 10 4.14543 10 5.25Z" fill="#4C5254"/>
<path fill-rule="evenodd" clip-rule="evenodd" d="M15.1637 4.90072C15.1638 4.90099 15.164 4.90124 14.5 5.25C15.164 5.59876 15.1638 5.59901 15.1637 5.59928L15.1626 5.60146L15.1603 5.6058L15.153 5.61931C15.147 5.63043 15.1386 5.64573 15.128 5.66494C15.1066 5.70334 15.0759 5.75741 15.0361 5.82491C14.9563 5.9598 14.8395 6.14891 14.6867 6.3742C14.3819 6.82344 13.929 7.42363 13.3355 8.02627C12.1596 9.22023 10.3536 10.5 8 10.5C5.64644 10.5 3.84037 9.22023 2.6645 8.02627C2.07099 7.42363 1.6181 6.82344 1.31331 6.3742C1.16046 6.14891 1.04366 5.9598 0.963947 5.82491C0.924063 5.75741 0.893379 5.70334 0.872031 5.66494C0.861355 5.64573 0.853005 5.63043 0.847 5.61931L0.839749 5.6058L0.837444 5.60146L0.836623 5.5999C0.836482 5.59963 0.836022 5.59876 1.5 5.25C0.836022 4.90124 0.836153 4.90099 0.836295 4.90072L0.837444 4.89854L0.839749 4.8942L0.847 4.88069C0.853005 4.86957 0.861355 4.85427 0.872031 4.83506C0.893379 4.79666 0.924063 4.74259 0.963947 4.67509C1.04366 4.5402 1.16046 4.35109 1.31331 4.1258C1.6181 3.67656 2.07099 3.07637 2.6645 2.47373C3.84037 1.27977 5.64644 0 8 0C10.3536 0 12.1596 1.27977 13.3355 2.47373C13.929 3.07637 14.3819 3.67656 14.6867 4.1258C14.8395 4.35109 14.9563 4.5402 15.0361 4.67509C15.0759 4.74259 15.1066 4.79666 15.128 4.83506C15.1386 4.85427 15.147 4.86957 15.153 4.88069L15.1603 4.8942L15.1626 4.89854L15.1637 4.90072ZM2.55459 5.53205C2.48368 5.42753 2.42215 5.33265 2.3702 5.25C2.42215 5.16735 2.48368 5.07247 2.55459 4.96795C2.82225 4.57344 3.21878 4.04863 3.73323 3.52627C4.77326 2.47023 6.2172 1.5 8 1.5C9.7828 1.5 11.2267 2.47023 12.2668 3.52627C12.7812 4.04863 13.1778 4.57344 13.4454 4.96795C13.5163 5.07247 13.5779 5.16735 13.6298 5.25C13.5779 5.33265 13.5163 5.42753 13.4454 5.53205C13.1778 5.92656 12.7812 6.45137 12.2668 6.97373C11.2267 8.02977 9.7828 9 8 9C6.2172 9 4.77326 8.02977 3.73323 6.97373C3.21878 6.45137 2.82225 5.92656 2.55459 5.53205ZM14.5 5.25L15.1637 4.90072C15.2784 5.11908 15.2784 5.38092 15.1637 5.59928L14.5 5.25Z" fill="#4C5254"/>
<path d="M0.836295 4.90072L1.5 5.25L0.836022 5.59876C0.721327 5.3804 0.7216 5.11908 0.836295 4.90072Z" fill="#4C5254"/>
</svg>