<svg width="14" height="16" viewBox="0 0 14 16" fill="none" xmlns="http://www.w3.org/2000/svg">
<path fill-rule="evenodd" clip-rule="evenodd" d="M7 0C9.42624 0 11.4089 1.80861 11.5428 4.08743L11.55 4.33333L11.5512 5.34211C12.9221 5.45297 14 6.60061 14 8V13.3333C14 14.8061 12.8061 16 11.3333 16H2.66667C1.19391 16 0 14.8061 0 13.3333V8C0 6.60026 1.07845 5.45241 2.44976 5.34203L2.45 4.33333C2.45 1.9401 4.4871 0 7 0ZM7 2C5.71456 2 4.66033 2.94281 4.55812 4.14196L4.55 4.33333V5.333H9.45V4.33333C9.45 3.04467 8.3531 2 7 2Z" fill="#4C5254"/>
</svg>
